<?xml version="1.0" standalone="no"?>
<!DOCTYPE svg PUBLIC "-//W3C//DTD SVG 20010904//EN"
 "http://www.w3.org/TR/2001/REC-SVG-20010904/DTD/svg10.dtd">
<svg version="1.0" xmlns="http://www.w3.org/2000/svg"
 width="360.000000pt" height="360.000000pt" viewBox="0 0 360.000000 360.000000"
 preserveAspectRatio="xMidYMid meet">

<g transform="translate(0.000000,360.000000) scale(0.100000,-0.100000)"
fill="#000000" stroke="none">
<path d="M1595 2750 c-217 -53 -383 -203 -463 -418 -22 -59 -25 -85 -27 -217
-1 -86 -8 -163 -14 -180 -7 -16 -38 -57 -70 -90 -59 -61 -83 -99 -94 -146 -8
-33 13 -54 79 -78 l49 -17 3 -61 c3 -54 6 -61 29 -72 l26 -12 -22 -20 c-29
-27 -27 -44 9 -71 40 -29 45 -50 24 -108 -16 -45 -16 -50 -1 -73 19 -30 33
-33 194 -51 80 -9 132 -19 149 -30 34 -23 74 -113 88 -198 l10 -68 418 0 c230
0 418 2 418 4 0 3 -11 55 -24 118 -43 196 -59 333 -54 458 5 130 11 148 103
289 95 146 143 360 115 519 -33 196 -191 379 -400 462 -120 48 -189 61 -350
65 -85 3 -173 0 -195 -5z m379 -75 c80 -39 150 -110 189 -192 30 -63 32 -76
32 -173 0 -99 -2 -110 -33 -172 -41 -84 -128 -167 -209 -199 -46 -19 -77 -23
-153 -23 -76 0 -107 4 -153 23 -81 32 -168 115 -210 200 -30 62 -32 73 -32
171 0 97 2 110 31 170 34 73 106 150 167 182 84 42 109 48 212 45 86 -3 108
-8 159 -32z"/>
<path d="M1756 2618 c-20 -28 -20 -46 0 -94 15 -37 15 -39 -6 -56 -12 -10 -28
-18 -35 -18 -28 0 -43 -36 -50 -121 -7 -84 -8 -87 -54 -138 -44 -49 -47 -51
-78 -42 -30 9 -33 7 -33 -10 0 -11 -4 -17 -10 -14 -5 3 -10 1 -10 -5 0 -7 9
-14 20 -17 23 -6 26 -19 8 -26 -10 -4 -10 -6 -1 -6 6 -1 15 4 18 9 3 6 11 10
16 10 6 0 7 -4 4 -10 -3 -5 5 -20 18 -33 23 -24 26 -24 237 -24 211 0 214 0
237 24 13 13 21 28 18 33 -3 6 -2 10 4 10 5 0 13 -4 16 -10 3 -5 11 -10 17
-10 7 0 7 5 -1 14 -9 11 -7 15 9 19 11 3 20 10 20 17 0 6 -4 8 -10 5 -5 -3
-10 3 -10 13 0 18 -4 19 -35 12 -34 -8 -37 -6 -80 47 -36 44 -45 63 -46 96 -3
122 -8 134 -70 165 -36 18 -37 23 -18 89 11 35 10 45 -4 67 -22 34 -69 36 -91
4z m-44 -429 c-6 -27 -14 -35 -40 -40 -41 -8 -40 0 3 40 19 17 36 42 36 54 2
22 2 22 6 1 2 -12 0 -37 -5 -55z m214 1 c42 -42 43 -49 2 -41 -34 7 -46 29
-46 86 1 20 2 23 5 9 2 -12 20 -36 39 -54z"/>
</g>
</svg>
